<?xml version="1.0" encoding="utf-8"?>
<!-- Generator: Adobe Illustrator 26.0.2, SVG Export Plug-In . SVG Version: 6.00 Build 0)  -->
<svg version="1.1" id="Layer_1" xmlns="http://www.w3.org/2000/svg" xmlns:xlink="http://www.w3.org/1999/xlink" x="0px" y="0px"
	 viewBox="0 0 800 500" style="enable-background:new 0 0 800 500;" xml:space="preserve">
<path d="M747.1,239.6C672.2,101.1,540.9,17.3,395.6,17.3S118.7,101.1,44.4,239.6l0,0c-3.8,6.5-4,14.5-0.4,21.1h0
	c74.9,138.4,206.2,222.2,351.6,222.2s276.9-82.7,351.6-222.2l0.1-0.2C750.7,254,750.7,246.1,747.1,239.6L747.1,239.6z M395.6,437.3
	c-125.1,0-240-69.8-306.7-187.3C155.6,132.4,270.4,62.7,395.6,62.7S634.2,132.7,702,250C634.2,367.6,520.4,437.3,395.6,437.3z"/>
</svg>
